# xmcd
#
# Track frame offsets:
#	150
#	12486
#	26362
#	37793
#	50869
#	62752
#	74638
#	88736
#	103788
#	113443
#	132867
#	143683
#	154982
#	164290
#
# Disc length: 2355 seconds
#
# Revision: 0
# Processed by: cddbd v1.5.2PL0 Copyright (c) Steve Scherf et al.
# Submitted via: audiograbber 1.83.01
#
DISCID=bc09310e
DTITLE=Trucker and Country für unterwegs - CD 2
DYEAR=1900
DGENRE=Country
TTITLE0=Johnny Cash - I Walk The Line
TTITLE1=Juice Newton - Listen To The Radio
TTITLE2=Don Gibson - Oh Lonesome Me
TTITLE3=Lynn Anderson - Rose Garden
TTITLE4=Stonewall Jackson - Waterloo
TTITLE5=Skeeter Davis - The End Of The World
TTITLE6=George Jones - A Good Year For The Roses
TTITLE7=Billie Davis - Angel Of The Morning
TTITLE8=Billy Swan - I Can Help
TTITLE9=Tanya Tucker - Delta Dawn
TTITLE10=Roger Miller - King Of The Road
TTITLE11=Charlie Pride - Help Me Make It Through The Night
TTITLE12=Ronnie Hawkins - Hey Good Lookin'
TTITLE13=Billy Joe Royal - Raintrops Keep Fallin' On My Head
EXTD=
EXTT0=
EXTT1=
EXTT2=
EXTT3=
EXTT4=
EXTT5=
EXTT6=
EXTT7=
EXTT8=
EXTT9=
EXTT10=
EXTT11=
EXTT12=
EXTT13=
PLAYORDER=
